<svg xmlns="http://www.w3.org/2000/svg" width="1600" height="1000" viewBox="0 0 1600 1000">
  <g fill="none" stroke="#2c2820" stroke-width="1" opacity="0.5">
    <path d="M120 160 L260 90 L360 210 L300 340 L160 300 Z"/>
    <path d="M300 340 L470 400 L520 560"/>
    <path d="M470 400 L620 330 L740 430"/>
    <path d="M740 430 L860 360 L980 470 L940 620 L800 640 Z"/>
    <path d="M980 470 L1140 420 L1260 520"/>
    <path d="M1260 520 L1380 440 L1500 560"/>
    <path d="M800 640 L860 800 L1020 860"/>
    <path d="M520 560 L640 700 L560 860"/>
    <path d="M160 300 L200 520 L120 700"/>
    <path d="M1140 420 L1180 250 L1320 190"/>
    <path d="M620 330 L680 170 L820 120"/>
  </g>
  <g fill="#2c2820">
    <circle cx="120" cy="160" r="3"/><circle cx="260" cy="90" r="2.4"/><circle cx="360" cy="210" r="3"/>
    <circle cx="300" cy="340" r="2.6"/><circle cx="160" cy="300" r="2.4"/><circle cx="470" cy="400" r="3.2"/>
    <circle cx="520" cy="560" r="2.6"/><circle cx="620" cy="330" r="2.8"/><circle cx="740" cy="430" r="3"/>
    <circle cx="860" cy="360" r="2.4"/><circle cx="980" cy="470" r="3.2"/><circle cx="940" cy="620" r="2.6"/>
    <circle cx="800" cy="640" r="3"/><circle cx="1140" cy="420" r="2.8"/><circle cx="1260" cy="520" r="3"/>
    <circle cx="1380" cy="440" r="2.4"/><circle cx="1500" cy="560" r="2.8"/><circle cx="860" cy="800" r="2.6"/>
    <circle cx="1020" cy="860" r="3"/><circle cx="640" cy="700" r="2.6"/><circle cx="560" cy="860" r="2.4"/>
    <circle cx="200" cy="520" r="2.6"/><circle cx="120" cy="700" r="2.8"/><circle cx="1180" cy="250" r="2.6"/>
    <circle cx="1320" cy="190" r="3"/><circle cx="680" cy="170" r="2.4"/><circle cx="820" cy="120" r="2.8"/>
  </g>
</svg>
